<svg width="1244" height="410" viewBox="0 0 1244 410" fill="none" xmlns="http://www.w3.org/2000/svg">
<g clip-path="url(#clip0_972_29)">
<g clip-path="url(#clip1_972_29)">
<path d="M650.914 208.998C650.914 215.324 650.091 221.033 648.444 226.127C646.881 231.138 644.782 235.574 642.148 239.435C639.514 243.296 636.428 246.582 632.889 249.293C629.35 252.004 625.687 254.222 621.901 255.948C618.115 257.673 614.247 258.946 610.296 259.768C606.428 260.589 602.765 261 599.309 261H475.481V228.961H599.309C605.481 228.961 610.255 227.153 613.63 223.539C617.086 219.924 618.815 215.077 618.815 208.998C618.815 206.04 618.362 203.329 617.457 200.865C616.551 198.4 615.235 196.264 613.506 194.457C611.86 192.65 609.802 191.253 607.333 190.267C604.947 189.281 602.272 188.789 599.309 188.789H525.481C520.296 188.789 514.7 187.885 508.691 186.078C502.683 184.188 497.086 181.19 491.901 177.082C486.798 172.974 482.519 167.593 479.062 160.939C475.687 154.285 474 146.152 474 136.54C474 126.928 475.687 118.836 479.062 112.264C482.519 105.61 486.798 100.229 491.901 96.1214C497.086 91.9316 502.683 88.9331 508.691 87.1257C514.7 85.2362 520.296 84.2915 525.481 84.2915H634.741V116.331H525.481C519.391 116.331 514.617 118.179 511.16 121.876C507.786 125.573 506.099 130.461 506.099 136.54C506.099 142.701 507.786 147.589 511.16 151.204C514.617 154.737 519.391 156.503 525.481 156.503H599.309H599.556C603.012 156.585 606.675 157.078 610.543 157.982C614.412 158.803 618.239 160.118 622.025 161.925C625.893 163.732 629.556 166.033 633.012 168.826C636.469 171.537 639.514 174.823 642.148 178.684C644.864 182.545 647.004 186.981 648.568 191.992C650.132 197.004 650.914 202.672 650.914 208.998Z" fill="white"/>
<path d="M854.247 159.83H782.025C777.663 159.83 774.37 160.939 772.148 163.157C769.926 165.293 768.815 168.456 768.815 172.646V261H736.716V172.646C736.716 167.142 737.416 162.212 738.815 157.858C740.214 153.504 742.066 149.684 744.37 146.398C746.757 143.03 749.473 140.196 752.519 137.896C755.564 135.513 758.733 133.583 762.025 132.104C765.399 130.625 768.774 129.557 772.148 128.9C775.605 128.161 778.815 127.791 781.778 127.791H854.247V159.83Z" fill="white"/>
<path d="M1084.86 244.857C1084.86 247.157 1084.45 249.293 1083.63 251.265C1082.81 253.237 1081.65 254.962 1080.17 256.441C1078.77 257.837 1077.09 258.946 1075.11 259.768C1073.22 260.589 1071.16 261 1068.94 261H996.346C992.395 261 988.156 260.548 983.63 259.644C979.185 258.741 974.782 257.303 970.42 255.332C966.058 253.278 961.819 250.731 957.704 247.691C953.671 244.57 950.132 240.832 947.086 236.478C944.041 232.041 941.572 226.948 939.679 221.197C937.868 215.447 936.963 208.957 936.963 201.727V127.791H969.062V201.727C969.062 205.917 969.761 209.696 971.16 213.064C972.642 216.35 974.617 219.185 977.086 221.567C979.556 223.95 982.436 225.798 985.728 227.112C989.103 228.345 992.724 228.961 996.593 228.961H1052.77V127.791H1084.86V244.857Z" fill="white"/>
<path d="M1244 216.022C1244 221.526 1243.3 226.496 1241.9 230.932C1240.5 235.286 1238.65 239.148 1236.35 242.516C1234.04 245.802 1231.37 248.636 1228.32 251.019C1225.28 253.319 1222.07 255.208 1218.69 256.687C1215.4 258.166 1212.02 259.275 1208.57 260.014C1205.19 260.671 1201.98 261 1198.94 261H1112.02V228.961H1198.69C1203.05 228.961 1206.35 227.852 1208.57 225.634C1210.79 223.416 1211.9 220.212 1211.9 216.022C1211.49 207.478 1207.17 203.206 1198.94 203.206H1149.19C1142.11 203.206 1136.1 201.974 1131.16 199.509C1126.22 197.045 1122.19 193.964 1119.06 190.267C1116.02 186.57 1113.79 182.586 1112.4 178.314C1111.08 174.042 1110.42 170.058 1110.42 166.361C1110.42 159.214 1111.7 153.217 1114.25 148.37C1116.8 143.441 1120.01 139.456 1123.88 136.417C1127.74 133.377 1131.94 131.2 1136.47 129.886C1141 128.489 1145.23 127.791 1149.19 127.791H1228.07V159.83H1149.43C1147.79 159.83 1146.47 160.035 1145.48 160.446C1144.58 160.775 1143.88 161.268 1143.38 161.925C1142.97 162.5 1142.72 163.157 1142.64 163.897C1142.56 164.554 1142.52 165.211 1142.52 165.868C1142.6 167.183 1142.85 168.21 1143.26 168.949C1143.67 169.688 1144.16 170.222 1144.74 170.551C1145.4 170.879 1146.1 171.085 1146.84 171.167C1147.66 171.167 1148.44 171.167 1149.19 171.167H1198.94C1207.17 171.167 1214.16 172.646 1219.93 175.603C1225.69 178.561 1230.34 182.299 1233.88 186.817C1237.42 191.253 1239.97 196.1 1241.53 201.358C1243.18 206.616 1244 211.504 1244 216.022Z" fill="white"/>
<path fill-rule="evenodd" clip-rule="evenodd" d="M674.494 261H706.593V132.651C695.136 132.463 683.989 135.754 674.494 141.965V261Z" fill="white"/>
<path fill-rule="evenodd" clip-rule="evenodd" d="M726.029 120.055C725.625 119.679 724.483 118.665 723.489 117.803C718.443 113.425 712.537 105.065 709.666 98.2406C706.269 90.1645 704.675 79.691 705.489 70.8022C705.851 66.8401 707.302 60.1816 708.514 56.9101C709.05 55.4653 708.947 55.5344 705.956 58.633C698.467 66.3918 690.661 71.2008 680.799 74.1306C668.367 77.8242 658.45 77.5281 644.509 73.0469C643.564 72.7433 643.903 73.1782 646.456 75.5416C657.538 85.8034 663.938 99.214 664.832 114.044C665.234 120.715 664.437 127.158 662.313 134.423L661.284 137.941L663.478 135.551C675.035 122.957 691.378 116.159 708.249 116.929C713.513 117.169 717.418 117.862 722.734 119.499C725.644 120.396 726.559 120.55 726.029 120.055ZM687.046 104.574C685.11 105.105 682.513 105.903 681.275 106.346L679.024 107.151L678.218 102.905C677.775 100.569 676.8 96.9027 676.05 94.7572L674.688 90.8559L676.347 90.5068C679.632 89.8151 687.457 87.6746 689.133 87.0093L690.845 86.3295L693.04 94.513L695.234 102.696L692.901 103.152C691.617 103.403 688.982 104.043 687.046 104.574Z" fill="white"/>
<path fill-rule="evenodd" clip-rule="evenodd" d="M880.282 261H912.38V132.651C900.924 132.463 889.777 135.754 880.282 141.965V261Z" fill="white"/>
<path fill-rule="evenodd" clip-rule="evenodd" d="M931.817 120.055C931.413 119.679 930.27 118.665 929.277 117.803C924.231 113.425 918.325 105.065 915.454 98.2406C912.057 90.1645 910.463 79.691 911.277 70.8022C911.639 66.8401 913.089 60.1816 914.302 56.9101C914.838 55.4653 914.735 55.5344 911.744 58.633C904.255 66.3918 896.449 71.2008 886.587 74.1306C874.155 77.8242 864.238 77.5281 850.296 73.0469C849.352 72.7433 849.691 73.1782 852.244 75.5416C863.326 85.8034 869.726 99.214 870.62 114.044C871.021 120.715 870.225 127.158 868.101 134.423L867.072 137.941L869.265 135.551C880.822 122.957 897.166 116.159 914.037 116.929C919.301 117.169 923.205 117.862 928.522 119.499C931.432 120.396 932.347 120.55 931.817 120.055ZM892.834 104.574C890.898 105.105 888.301 105.903 887.063 106.346L884.812 107.151L884.006 102.905C883.563 100.569 882.588 96.9027 881.838 94.7572L880.476 90.8559L882.135 90.5068C885.42 89.8151 893.245 87.6746 894.921 87.0093L896.633 86.3295L898.827 94.513L901.022 102.696L898.688 103.152C897.405 103.403 894.77 104.043 892.834 104.574Z" fill="white"/>
</g>
<path d="M588.265 281.264V353H569.819V303.81L539.997 353H526.675L496.853 303.81V353H478.407V281.264H503.309L533.336 331.889L563.363 281.264H588.265ZM597.099 271.016H614.623V286.286H597.099V271.016ZM597.099 292.639H614.623V353H597.099V292.639ZM687.394 271.016H704.918V353H687.394V343.572C680.835 350.438 670.28 354.025 657.265 354.025C637.896 354.025 621.294 345.929 621.294 322.871C621.294 299.813 637.896 291.614 657.265 291.614C670.28 291.614 680.835 295.201 687.394 302.067V271.016ZM663.106 339.37C678.785 339.37 687.394 334.759 687.394 322.871C687.394 310.881 678.785 306.269 663.106 306.269C647.427 306.269 638.921 310.881 638.921 322.871C638.921 334.759 647.427 339.37 663.106 339.37ZM713.09 271.016H730.614V286.286H713.09V271.016ZM713.09 292.639H730.614V353H713.09V292.639ZM779.097 354.025C754.091 354.025 737.285 345.007 737.285 322.871C737.285 300.633 754.091 291.614 779.097 291.614C803.999 291.614 820.908 300.633 820.908 322.871C820.908 345.007 803.999 354.025 779.097 354.025ZM779.097 339.37C795.288 339.37 803.282 335.373 803.282 322.871C803.282 310.266 795.288 306.269 779.097 306.269C762.802 306.269 754.809 310.266 754.809 322.871C754.809 335.373 762.802 339.37 779.097 339.37Z" fill="white"/>

<path fill-rule="evenodd" clip-rule="evenodd" d="M99.2893 70.2644C99.1838 70.719 98.9238 71.9836 98.7116 73.0747C97.6339 78.6178 94.0024 86.4746 90.2137 91.4617C85.7301 97.3629 78.7287 102.96 71.8715 106.126C68.815 107.537 63.3234 109.293 60.4139 109.79C59.129 110.009 59.223 110.055 62.7567 110.932C71.6047 113.127 78.4251 116.802 84.7368 122.776C92.6931 130.306 96.6639 137.685 99.2675 149.778C99.4439 150.598 99.6193 150.165 100.273 147.299C103.113 134.851 110.237 124.496 120.727 117.568C125.446 114.453 130.504 112.309 136.724 110.789L139.736 110.053L137.059 109.46C122.95 106.335 111.067 97.2574 104.507 84.5918C102.46 80.6399 101.319 77.4911 100.273 72.9093C99.7013 70.4019 99.4278 69.6673 99.2893 70.2644ZM104.407 105.327C105.614 106.518 107.295 108.081 108.142 108.799L109.683 110.104L106.912 112.49C105.387 113.802 103.112 116.067 101.857 117.523L99.5731 120.17L98.6169 119.104C96.7228 116.994 91.8497 112.176 90.6545 111.232L89.4335 110.267L99.5731 100.133L100.892 101.647C101.618 102.48 103.2 104.136 104.407 105.327Z" fill="white">
    <animateTransform attributeName="transform" type="rotate" from="0 98.3 104.43" to="360 98.3 104.43" dur="3s" repeatCount="indefinite" />
</path>

<path d="M54.8535 170.166C54.8535 181.222 45.8905 190.185 34.834 190.185C23.7775 190.185 14.8145 181.222 14.8145 170.166C14.8145 159.109 23.7775 150.146 34.834 150.146C45.8905 150.146 54.8535 159.109 54.8535 170.166Z" fill="white"/>
<path d="M179.775 45.2441C179.775 56.3006 170.812 65.2636 159.756 65.2636C148.699 65.2636 139.736 56.3006 139.736 45.2441C139.736 34.1876 148.699 25.2246 159.756 25.2246C170.812 25.2246 179.775 34.1876 179.775 45.2441Z" fill="white"/>
<path d="M172.001 270.592L238.62 238.621L270.592 172.001L203.972 203.972L172.001 270.592Z" fill="white"/>
<path d="M299.255 316.579L271.466 288.79L258.278 275.603L244.398 261.722L186.648 290.593L241.505 345.45L299.255 316.579Z" fill="white"/>
<path d="M290.593 186.648L261.722 244.398L275.752 258.427L288.812 271.488L316.579 299.255L345.45 241.505L290.593 186.648Z" fill="white"/>
<path fill-rule="evenodd" clip-rule="evenodd" d="M205.76 12.9441C203.796 8.24272 206.052 2.54973 210.629 0.656578C216.778 -1.88727 249.069 3.31114 270.018 10.2179C298.357 19.5602 324.618 35.4079 346.671 56.4747C358.539 67.8121 366.973 77.8577 375.913 91.3025C398.062 124.618 408.916 159.051 409.906 199.14C410.613 227.709 407.382 248.979 398.499 274.272C395.17 283.749 384.716 305.314 379.387 313.696C361.748 341.443 335.994 366.427 308.582 382.384C283.29 397.109 254.9 406.32 225.495 409.343C212.384 410.692 184.541 409.865 172.402 407.768C126.736 399.876 88.2399 379.599 56.7709 346.863C25.5464 314.381 6.43912 273.741 1.1558 228.574C-0.600265 213.562 -0.478417 211.533 2.37588 208.283C5.30903 204.942 9.07203 204.035 13.0684 205.704C16.0835 206.964 16.2492 207.246 22.2469 221.309C35.6439 252.719 61.2395 279.782 92.225 295.301C114.445 306.429 135.383 311.32 160.679 311.293C192.74 311.258 219.286 303.16 245.863 285.311C249.558 282.829 253.889 279.414 258.278 275.603L271.466 288.79C271.466 288.79 271.466 288.79 271.466 288.79C220.789 332.64 148.895 343.082 87.5478 313.221C67.5422 303.483 49.2098 289.782 35.6957 274.467C32.6973 271.069 30.2443 268.491 30.2443 268.737C30.2443 268.984 31.5098 272.243 33.0564 275.979C54.0058 326.59 95.1351 365.116 146.421 382.166C167.567 389.196 180.963 391.283 205.054 391.297C225.774 391.31 234.538 390.267 252.381 385.666C316.993 369.004 368.055 318.407 385.337 253.922C390.089 236.194 391.333 226.137 391.346 205.38C391.362 180.937 389.314 167.661 382.257 146.427C365.133 94.9144 326.822 53.993 276.036 32.9692C272.306 31.4249 269.053 30.1617 268.806 30.1617C268.56 30.1617 271.138 32.6148 274.536 35.6134C300.401 58.4403 319.709 92.3538 326.965 127.703C337.09 177.03 323.511 230.203 290.857 269.095C290.181 269.9 289.499 270.698 288.812 271.488L275.752 258.427C277.018 256.987 278.178 255.597 279.2 254.288C296.441 232.207 307.225 206.305 310.62 178.826C312.164 166.329 311.185 142.018 308.654 130C298.506 81.8104 265.445 40.9599 221.381 22.1638C207.287 16.1522 207.04 16.0065 205.76 12.9441Z" fill="white"/>
</g>
<defs>
<clipPath id="clip0_972_29">
<rect width="1244" height="410" fill="white"/>
</clipPath>
<clipPath id="clip1_972_29">
<rect width="770" height="205" fill="white" transform="translate(474 56)"/>
</clipPath>
</defs>
</svg>
