<svg width="2890" height="1472" viewBox="0 0 2890 1472" fill="none" xmlns="http://www.w3.org/2000/svg">
<g opacity="0.2" clip-path="url(#clip0_845_450)">
<g style="mix-blend-mode:overlay">
<path d="M530.374 623.335L559.092 681.1L472.027 693.674L534.684 819.708L459.228 830.605L396.57 704.571L309.504 717.145L280.786 659.38L530.374 623.335ZM733.493 594.001L808.949 583.104L900.325 766.903L824.869 777.801L793.54 714.784L674.55 731.968L705.879 794.985L630.422 805.882L539.046 622.082L614.503 611.185L645.832 674.202L764.822 657.018L733.493 594.001ZM895.936 570.542L987.311 754.341L911.855 765.238L820.479 581.439L895.936 570.542ZM963.719 688.237L1039.18 677.34C1043.61 686.267 1055.9 690.965 1103.79 684.05C1148.48 677.595 1153.85 674.005 1150.46 667.179C1146.54 659.301 1139.34 659.215 1091.1 664.776C998.082 675.394 956.178 666.812 934.9 624.013C914.798 583.577 950.005 559.919 1030.11 548.351C1109.33 536.909 1162.64 547.784 1186.01 594.784L1110.55 605.681C1105.72 595.966 1087.27 596.381 1050.41 601.703C1015 606.817 1008.53 609.44 1012.05 616.529C1015.58 623.619 1022.7 622.308 1067.6 617.513C1149.14 608.834 1201.24 606.655 1225.13 654.706C1250.33 705.382 1210.29 724.954 1126.99 736.983C1043.7 749.012 990.87 742.852 963.719 688.237ZM1044.76 774.586L1136.14 958.386L1060.68 969.283L969.307 785.484L1044.76 774.586ZM1112.55 892.282L1188 881.384C1192.44 890.312 1204.73 895.01 1252.62 888.094C1297.31 881.64 1302.68 878.05 1299.29 871.223C1295.37 863.346 1288.17 863.26 1239.92 868.821C1146.91 879.439 1105.01 870.857 1083.73 828.058C1063.63 787.622 1098.83 763.964 1178.93 752.396C1258.16 740.954 1311.47 751.829 1334.84 798.829L1259.38 809.726C1254.55 800.011 1236.09 800.425 1199.24 805.748C1163.83 810.861 1157.36 813.485 1160.88 820.574C1164.41 827.663 1171.53 826.353 1216.43 821.558C1297.96 812.878 1350.07 810.7 1373.96 858.751C1399.15 909.427 1359.11 928.999 1275.82 941.027C1192.53 953.056 1139.7 946.896 1112.55 892.282ZM1130.15 1115.28L1205.61 1104.38C1210.05 1113.31 1222.34 1118.01 1270.22 1111.09C1314.92 1104.63 1320.29 1101.05 1316.89 1094.22C1312.98 1086.34 1305.78 1086.26 1257.53 1091.82C1164.52 1102.43 1122.61 1093.85 1101.33 1051.05C1081.23 1010.62 1116.44 986.959 1196.54 975.391C1275.77 963.949 1329.08 974.824 1352.44 1021.82L1276.99 1032.72C1272.16 1023.01 1253.7 1023.42 1216.84 1028.74C1181.44 1033.86 1174.96 1036.48 1178.49 1043.57C1182.01 1050.66 1189.14 1049.35 1234.03 1044.55C1315.57 1035.87 1367.68 1033.7 1391.57 1081.75C1416.76 1132.42 1376.72 1151.99 1293.43 1164.02C1210.14 1176.05 1157.3 1169.89 1130.15 1115.28ZM1414.66 946.706L1506.03 1130.51L1430.58 1141.4L1339.2 957.603L1414.66 946.706ZM1698.59 981.122C1711.91 1007.9 1709.23 1031.93 1692.76 1046.97L1754.98 1094.55L1665.6 1107.46L1616.04 1068.47L1571.63 1074.88L1593.04 1117.94L1517.58 1128.84L1426.21 945.037L1585.83 921.985C1631.97 915.321 1678.23 940.161 1698.59 981.122ZM1530.38 991.906L1542.91 1017.11L1612.57 1007.05C1620.11 1005.96 1629.4 1004.62 1623.13 992.019C1616.87 979.416 1607.58 980.757 1600.04 981.847L1530.38 991.906ZM1747.67 898.613L1839.05 1082.41L1763.59 1093.31L1672.21 909.51L1747.67 898.613ZM2060.17 951.699C2091.89 1015.5 2068.7 1052.06 1979.6 1064.93C1890.21 1077.84 1836.63 1052.65 1804.78 988.582L1759.22 896.944L1834.68 886.047L1880.24 977.684C1890.03 997.377 1906.48 1013.58 1950.88 1007.16C1995.28 1000.75 1994.37 982.026 1984.71 962.596L1939.16 870.959L2014.61 860.061L2060.17 951.699ZM2082.43 977.752L2157.89 966.855C2162.33 975.782 2174.62 980.48 2222.5 973.565C2267.2 967.11 2272.56 963.52 2269.17 956.693C2265.25 948.816 2258.06 948.73 2209.81 954.291C2116.79 964.909 2074.89 956.327 2053.61 913.528C2033.51 873.092 2068.72 849.434 2148.82 837.866C2228.05 826.424 2281.36 837.299 2304.72 884.299L2229.27 895.196C2224.44 885.481 2205.98 885.896 2169.12 891.218C2133.71 896.332 2127.24 898.955 2130.77 906.044C2134.29 913.134 2141.42 911.823 2186.31 907.028C2267.85 898.349 2319.96 896.17 2343.84 944.221C2369.04 994.897 2329 1014.47 2245.71 1026.5C2162.41 1038.53 2109.58 1032.37 2082.43 977.752Z" fill="white"/>
</g>
<g style="mix-blend-mode:overlay">
<path d="M252.374 898.786L281.092 956.551L194.027 969.125L256.684 1095.16L181.228 1106.06L118.57 980.022L31.5044 992.596L2.7863 934.83L252.374 898.786ZM455.493 869.452L530.949 858.555L622.325 1042.35L546.869 1053.25L515.54 990.234L396.55 1007.42L427.879 1070.44L352.422 1081.33L261.046 897.533L336.503 886.636L367.832 949.653L486.822 932.469L455.493 869.452ZM617.936 845.992L709.311 1029.79L633.855 1040.69L542.479 856.89L617.936 845.992ZM685.719 963.688L761.175 952.791C765.614 961.718 777.903 966.416 825.789 959.5C870.483 953.046 875.852 949.456 872.458 942.629C868.542 934.752 861.345 934.666 813.096 940.227C720.082 950.845 678.178 942.263 656.9 899.464C636.798 859.028 672.005 835.37 752.105 823.802C831.335 812.36 884.644 823.235 908.01 870.235L832.553 881.132C827.723 871.417 809.266 871.831 772.408 877.154C737.002 882.268 730.53 884.891 734.054 891.98C737.579 899.07 744.703 897.759 789.6 892.964C871.136 884.284 923.243 882.106 947.132 930.157C972.325 980.833 932.287 1000.4 848.994 1012.43C765.702 1024.46 712.87 1018.3 685.719 963.688ZM766.763 1050.04L858.139 1233.84L782.683 1244.73L691.307 1060.93L766.763 1050.04ZM834.547 1167.73L910.003 1156.84C914.442 1165.76 926.731 1170.46 974.617 1163.55C1019.31 1157.09 1024.68 1153.5 1021.29 1146.67C1017.37 1138.8 1010.17 1138.71 961.924 1144.27C868.91 1154.89 827.006 1146.31 805.728 1103.51C785.626 1063.07 820.833 1039.41 900.933 1027.85C980.163 1016.4 1033.47 1027.28 1056.84 1074.28L981.381 1085.18C976.551 1075.46 958.094 1075.88 921.236 1081.2C885.83 1086.31 879.358 1088.94 882.882 1096.02C886.407 1103.11 893.531 1101.8 938.428 1097.01C1019.96 1088.33 1072.07 1086.15 1095.96 1134.2C1121.15 1184.88 1081.11 1204.45 997.822 1216.48C914.53 1228.51 861.698 1222.35 834.547 1167.73ZM852.153 1390.73L927.61 1379.83C932.048 1388.76 944.337 1393.46 992.223 1386.54C1036.92 1380.09 1042.29 1376.5 1038.89 1369.67C1034.98 1361.79 1027.78 1361.71 979.531 1367.27C886.516 1377.89 844.612 1369.3 823.335 1326.5C803.232 1286.07 838.439 1262.41 918.54 1250.84C997.769 1239.4 1051.08 1250.27 1074.44 1297.28L998.988 1308.17C994.158 1298.46 975.7 1298.87 938.843 1304.19C903.436 1309.31 896.964 1311.93 900.488 1319.02C904.013 1326.11 911.138 1324.8 956.034 1320C1037.57 1311.32 1089.68 1309.15 1113.57 1357.2C1138.76 1407.87 1098.72 1427.44 1015.43 1439.47C932.136 1451.5 879.305 1445.34 852.153 1390.73ZM1136.66 1222.16L1228.03 1405.96L1152.58 1416.85L1061.2 1233.05L1136.66 1222.16ZM1420.59 1256.57C1433.91 1283.35 1431.23 1307.38 1414.76 1322.42L1476.98 1370L1387.6 1382.91L1338.04 1343.92L1293.63 1350.33L1315.04 1393.39L1239.58 1404.29L1148.21 1220.49L1307.83 1197.44C1353.97 1190.77 1400.23 1215.61 1420.59 1256.57ZM1252.38 1267.36L1264.91 1292.56L1334.57 1282.5C1342.11 1281.41 1351.4 1280.07 1345.13 1267.47C1338.87 1254.87 1329.58 1256.21 1322.04 1257.3L1252.38 1267.36ZM1469.67 1174.06L1561.05 1357.86L1485.59 1368.76L1394.21 1184.96L1469.67 1174.06ZM1782.17 1227.15C1813.89 1290.95 1790.7 1327.51 1701.6 1340.38C1612.21 1353.29 1558.63 1328.1 1526.78 1264.03L1481.22 1172.4L1556.68 1161.5L1602.24 1253.14C1612.03 1272.83 1628.48 1289.03 1672.88 1282.61C1717.28 1276.2 1716.37 1257.48 1706.71 1238.05L1661.16 1146.41L1736.61 1135.51L1782.17 1227.15ZM1804.43 1253.2L1879.89 1242.31C1884.33 1251.23 1896.62 1255.93 1944.5 1249.02C1989.2 1242.56 1994.56 1238.97 1991.17 1232.14C1987.25 1224.27 1980.06 1224.18 1931.81 1229.74C1838.79 1240.36 1796.89 1231.78 1775.61 1188.98C1755.51 1148.54 1790.72 1124.88 1870.82 1113.32C1950.05 1101.87 2003.36 1112.75 2026.72 1159.75L1951.27 1170.65C1946.44 1160.93 1927.98 1161.35 1891.12 1166.67C1855.71 1171.78 1849.24 1174.41 1852.77 1181.5C1856.29 1188.58 1863.42 1187.27 1908.31 1182.48C1989.85 1173.8 2041.96 1171.62 2065.84 1219.67C2091.04 1270.35 2051 1289.92 1967.71 1301.95C1884.41 1313.98 1831.58 1307.82 1804.43 1253.2Z" fill="white"/>
</g>
<g style="mix-blend-mode:overlay">
<path d="M798.374 349.786L827.092 407.551L740.027 420.125L802.684 546.159L727.228 557.056L664.57 431.022L577.504 443.596L548.786 385.83L798.374 349.786ZM1001.49 320.452L1076.95 309.555L1168.33 493.354L1092.87 504.251L1061.54 441.234L942.55 458.419L973.879 521.435L898.422 532.333L807.046 348.533L882.503 337.636L913.832 400.653L1032.82 383.469L1001.49 320.452ZM1163.94 296.992L1255.31 480.792L1179.85 491.689L1088.48 307.89L1163.94 296.992ZM1231.72 414.688L1307.18 403.791C1311.61 412.718 1323.9 417.416 1371.79 410.5C1416.48 404.046 1421.85 400.456 1418.46 393.629C1414.54 385.752 1407.34 385.666 1359.1 391.227C1266.08 401.845 1224.18 393.263 1202.9 350.464C1182.8 310.028 1218.01 286.37 1298.11 274.802C1377.33 263.36 1430.64 274.235 1454.01 321.235L1378.55 332.132C1373.72 322.417 1355.27 322.831 1318.41 328.154C1283 333.268 1276.53 335.891 1280.05 342.98C1283.58 350.07 1290.7 348.759 1335.6 343.964C1417.14 335.284 1469.24 333.106 1493.13 381.157C1518.33 431.833 1478.29 451.405 1394.99 463.434C1311.7 475.462 1258.87 469.302 1231.72 414.688ZM1312.76 501.037L1404.14 684.837L1328.68 695.734L1237.31 511.934L1312.76 501.037ZM1380.55 618.732L1456 607.835C1460.44 616.763 1472.73 621.461 1520.62 614.545C1565.31 608.091 1570.68 604.501 1567.29 597.674C1563.37 589.797 1556.17 589.711 1507.92 595.271C1414.91 605.89 1373.01 597.308 1351.73 554.509C1331.63 514.073 1366.83 490.414 1446.93 478.847C1526.16 467.404 1579.47 478.28 1602.84 525.28L1527.38 536.177C1522.55 526.462 1504.09 526.876 1467.24 532.199C1431.83 537.312 1425.36 539.935 1428.88 547.025C1432.41 554.114 1439.53 552.804 1484.43 548.009C1565.96 539.329 1618.07 537.151 1641.96 585.201C1667.15 635.877 1627.11 655.449 1543.82 667.478C1460.53 679.507 1407.7 673.347 1380.55 618.732ZM1398.15 841.728L1473.61 830.831C1478.05 839.758 1490.34 844.456 1538.22 837.54C1582.92 831.086 1588.29 827.496 1584.89 820.669C1580.98 812.792 1573.78 812.706 1525.53 818.267C1432.52 828.885 1390.61 820.303 1369.33 777.504C1349.23 737.068 1384.44 713.41 1464.54 701.842C1543.77 690.4 1597.08 701.275 1620.44 748.275L1544.99 759.172C1540.16 749.457 1521.7 749.871 1484.84 755.194C1449.44 760.307 1442.96 762.931 1446.49 770.02C1450.01 777.11 1457.14 775.799 1502.03 771.004C1583.57 762.324 1635.68 760.146 1659.57 808.197C1684.76 858.873 1644.72 878.445 1561.43 890.474C1478.14 902.502 1425.3 896.342 1398.15 841.728ZM1682.66 673.156L1774.03 856.956L1698.58 867.853L1607.2 684.054L1682.66 673.156ZM1966.59 707.573C1979.91 734.355 1977.23 758.381 1960.76 773.424L2022.98 821.003L1933.6 833.912L1884.04 794.916L1839.63 801.329L1861.04 844.39L1785.58 855.288L1694.21 671.488L1853.83 648.436C1899.97 641.772 1946.23 666.612 1966.59 707.573ZM1798.38 718.356L1810.91 743.563L1880.57 733.504C1888.11 732.414 1897.4 731.073 1891.13 718.47C1884.87 705.866 1875.58 707.208 1868.04 708.297L1798.38 718.356ZM2015.67 625.064L2107.05 808.863L2031.59 819.76L1940.21 635.961L2015.67 625.064ZM2328.17 678.149C2359.89 741.954 2336.7 778.512 2247.6 791.379C2158.21 804.288 2104.63 779.1 2072.78 715.032L2027.22 623.395L2102.68 612.498L2148.24 704.135C2158.03 723.828 2174.48 740.026 2218.88 733.613C2263.28 727.201 2262.37 708.477 2252.71 689.047L2207.16 597.41L2282.61 586.512L2328.17 678.149ZM2350.43 704.203L2425.89 693.306C2430.33 702.233 2442.62 706.931 2490.5 700.015C2535.2 693.561 2540.56 689.971 2537.17 683.144C2533.25 675.267 2526.06 675.181 2477.81 680.742C2384.79 691.36 2342.89 682.778 2321.61 639.979C2301.51 599.543 2336.72 575.885 2416.82 564.317C2496.05 552.875 2549.36 563.75 2572.72 610.75L2497.27 621.647C2492.44 611.932 2473.98 612.346 2437.12 617.669C2401.71 622.782 2395.24 625.406 2398.77 632.495C2402.29 639.585 2409.42 638.274 2454.31 633.479C2535.85 624.799 2587.96 622.621 2611.84 670.672C2637.04 721.348 2597 740.92 2513.71 752.949C2430.41 764.977 2377.58 758.817 2350.43 704.203Z" fill="white"/>
</g>
<g style="mix-blend-mode:overlay">
<path d="M1069.37 84.7857L1098.09 142.551L1011.03 155.125L1073.68 281.159L998.228 292.056L935.57 166.022L848.504 178.596L819.786 120.83L1069.37 84.7857ZM1272.49 55.4519L1347.95 44.5547L1439.33 228.354L1363.87 239.251L1332.54 176.234L1213.55 193.419L1244.88 256.435L1169.42 267.333L1078.05 83.5332L1153.5 72.636L1184.83 135.653L1303.82 118.469L1272.49 55.4519ZM1434.94 31.9924L1526.31 215.792L1450.85 226.689L1359.48 42.8897L1434.94 31.9924ZM1502.72 149.688L1578.18 138.791C1582.61 147.718 1594.9 152.416 1642.79 145.5C1687.48 139.046 1692.85 135.456 1689.46 128.629C1685.54 120.752 1678.34 120.666 1630.1 126.227C1537.08 136.845 1495.18 128.263 1473.9 85.464C1453.8 45.0281 1489.01 21.3697 1569.11 9.80184C1648.33 -1.64024 1701.64 9.23492 1725.01 56.2351L1649.55 67.1323C1644.72 57.4172 1626.27 57.8313 1589.41 63.1542C1554 68.2675 1547.53 70.8908 1551.05 77.9802C1554.58 85.0696 1561.7 83.7592 1606.6 78.964C1688.14 70.2844 1740.24 68.1062 1764.13 116.157C1789.33 166.833 1749.29 186.405 1665.99 198.434C1582.7 210.462 1529.87 204.302 1502.72 149.688ZM1583.76 236.037L1675.14 419.837L1599.68 430.734L1508.31 246.934L1583.76 236.037ZM1651.55 353.732L1727 342.835C1731.44 351.763 1743.73 356.461 1791.62 349.545C1836.31 343.091 1841.68 339.501 1838.29 332.674C1834.37 324.797 1827.17 324.711 1778.92 330.271C1685.91 340.89 1644.01 332.308 1622.73 289.509C1602.63 249.073 1637.83 225.414 1717.93 213.847C1797.16 202.404 1850.47 213.28 1873.84 260.28L1798.38 271.177C1793.55 261.462 1775.09 261.876 1738.24 267.199C1702.83 272.312 1696.36 274.935 1699.88 282.025C1703.41 289.114 1710.53 287.804 1755.43 283.009C1836.96 274.329 1889.07 272.151 1912.96 320.201C1938.15 370.877 1898.11 390.449 1814.82 402.478C1731.53 414.507 1678.7 408.347 1651.55 353.732ZM1669.15 576.728L1744.61 565.831C1749.05 574.758 1761.34 579.456 1809.22 572.54C1853.92 566.086 1859.29 562.496 1855.89 555.669C1851.98 547.792 1844.78 547.706 1796.53 553.267C1703.52 563.885 1661.61 555.303 1640.33 512.504C1620.23 472.068 1655.44 448.41 1735.54 436.842C1814.77 425.4 1868.08 436.275 1891.44 483.275L1815.99 494.172C1811.16 484.457 1792.7 484.871 1755.84 490.194C1720.44 495.307 1713.96 497.931 1717.49 505.02C1721.01 512.11 1728.14 510.799 1773.03 506.004C1854.57 497.324 1906.68 495.146 1930.57 543.197C1955.76 593.873 1915.72 613.445 1832.43 625.474C1749.14 637.502 1696.3 631.342 1669.15 576.728ZM1953.66 408.156L2045.03 591.956L1969.58 602.853L1878.2 419.054L1953.66 408.156ZM2237.59 442.573C2250.91 469.355 2248.23 493.381 2231.76 508.424L2293.98 556.003L2204.6 568.912L2155.04 529.916L2110.63 536.329L2132.04 579.39L2056.58 590.288L1965.21 406.488L2124.83 383.436C2170.97 376.772 2217.23 401.612 2237.59 442.573ZM2069.38 453.356L2081.91 478.563L2151.57 468.504C2159.11 467.414 2168.4 466.073 2162.13 453.47C2155.87 440.866 2146.58 442.208 2139.04 443.297L2069.38 453.356ZM2286.67 360.064L2378.05 543.863L2302.59 554.76L2211.21 370.961L2286.67 360.064ZM2599.17 413.149C2630.89 476.954 2607.7 513.512 2518.6 526.379C2429.21 539.288 2375.63 514.1 2343.78 450.032L2298.22 358.395L2373.68 347.498L2419.24 439.135C2429.03 458.828 2445.48 475.026 2489.88 468.613C2534.28 462.201 2533.37 443.477 2523.71 424.047L2478.16 332.41L2553.61 321.512L2599.17 413.149ZM2621.43 439.203L2696.89 428.306C2701.33 437.233 2713.62 441.931 2761.5 435.015C2806.2 428.561 2811.56 424.971 2808.17 418.144C2804.25 410.267 2797.06 410.181 2748.81 415.742C2655.79 426.36 2613.89 417.778 2592.61 374.979C2572.51 334.543 2607.72 310.885 2687.82 299.317C2767.05 287.875 2820.36 298.75 2843.72 345.75L2768.27 356.647C2763.44 346.932 2744.98 347.346 2708.12 352.669C2672.71 357.782 2666.24 360.406 2669.77 367.495C2673.29 374.585 2680.42 373.274 2725.31 368.479C2806.85 359.799 2858.96 357.621 2882.84 405.672C2908.04 456.348 2868 475.92 2784.71 487.949C2701.41 499.977 2648.58 493.817 2621.43 439.203Z" fill="white"/>
</g>
</g>
<defs>
<clipPath id="clip0_845_450">
<rect width="2890" height="1472" fill="white"/>
</clipPath>
</defs>
</svg>
