<svg width="410" height="410" viewBox="0 0 410 410" fill="none" xmlns="http://www.w3.org/2000/svg">
<g clip-path="url(#clip0_974_379)">
<path fill-rule="evenodd" clip-rule="evenodd" d="M99.2893 70.2644C99.1838 70.719 98.9238 71.9836 98.7116 73.0747C97.6339 78.6178 94.0024 86.4746 90.2137 91.4617C85.7301 97.3629 78.7287 102.96 71.8715 106.126C68.815 107.537 63.3234 109.293 60.4139 109.79C59.129 110.009 59.223 110.055 62.7567 110.932C71.6047 113.127 78.4251 116.802 84.7368 122.776C92.6931 130.306 96.6639 137.685 99.2675 149.778C99.4439 150.598 99.6193 150.165 100.273 147.299C103.113 134.851 110.237 124.496 120.727 117.568C125.446 114.453 130.504 112.309 136.724 110.789L139.736 110.053L137.059 109.46C122.95 106.335 111.067 97.2574 104.507 84.5918C102.46 80.6399 101.319 77.4911 100.273 72.9093C99.7013 70.4019 99.4278 69.6673 99.2893 70.2644ZM104.407 105.327C105.614 106.518 107.295 108.081 108.142 108.799L109.683 110.104L106.912 112.49C105.387 113.802 103.112 116.067 101.857 117.523L99.5731 120.17L98.6169 119.104C96.7228 116.994 91.8497 112.176 90.6545 111.232L89.4335 110.267L99.5731 100.133L100.892 101.647C101.618 102.48 103.2 104.136 104.407 105.327Z" fill="white"/>
<path d="M54.8535 170.166C54.8535 181.222 45.8905 190.185 34.834 190.185C23.7775 190.185 14.8145 181.222 14.8145 170.166C14.8145 159.109 23.7775 150.146 34.834 150.146C45.8905 150.146 54.8535 159.109 54.8535 170.166Z" fill="white"/>
<path d="M179.775 45.2441C179.775 56.3006 170.812 65.2636 159.756 65.2636C148.699 65.2636 139.736 56.3006 139.736 45.2441C139.736 34.1876 148.699 25.2246 159.756 25.2246C170.812 25.2246 179.775 34.1876 179.775 45.2441Z" fill="white"/>
<path d="M172.001 270.592L238.62 238.621L270.592 172.001L203.972 203.972L172.001 270.592Z" fill="white"/>
<path d="M299.255 316.579L271.466 288.79L258.278 275.603L244.398 261.722L186.648 290.593L241.505 345.45L299.255 316.579Z" fill="white"/>
<path d="M290.593 186.648L261.722 244.398L275.752 258.427L288.812 271.488L316.579 299.255L345.45 241.505L290.593 186.648Z" fill="white"/>
<path fill-rule="evenodd" clip-rule="evenodd" d="M205.76 12.9441C203.796 8.24272 206.052 2.54973 210.629 0.656578C216.778 -1.88727 249.069 3.31114 270.018 10.2179C298.357 19.5602 324.618 35.4079 346.671 56.4747C358.539 67.8121 366.973 77.8577 375.913 91.3025C398.062 124.618 408.916 159.051 409.906 199.14C410.613 227.709 407.382 248.979 398.499 274.272C395.17 283.749 384.716 305.314 379.387 313.696C361.748 341.443 335.994 366.427 308.582 382.384C283.29 397.109 254.9 406.32 225.495 409.343C212.384 410.692 184.541 409.865 172.402 407.768C126.736 399.876 88.2399 379.599 56.7709 346.863C25.5464 314.381 6.43912 273.741 1.1558 228.574C-0.600265 213.562 -0.478417 211.533 2.37588 208.283C5.30903 204.942 9.07203 204.035 13.0684 205.704C16.0835 206.964 16.2492 207.246 22.2469 221.309C35.6439 252.719 61.2395 279.782 92.225 295.301C114.445 306.429 135.383 311.32 160.679 311.293C192.74 311.258 219.286 303.16 245.863 285.311C249.558 282.829 253.889 279.414 258.278 275.603L271.466 288.79C271.466 288.79 271.466 288.79 271.466 288.79C220.789 332.64 148.895 343.082 87.5478 313.221C67.5422 303.483 49.2098 289.782 35.6957 274.467C32.6973 271.069 30.2443 268.491 30.2443 268.737C30.2443 268.984 31.5098 272.243 33.0564 275.979C54.0058 326.59 95.1351 365.116 146.421 382.166C167.567 389.196 180.963 391.283 205.054 391.297C225.774 391.31 234.538 390.267 252.381 385.666C316.993 369.004 368.054 318.407 385.337 253.922C390.089 236.194 391.333 226.137 391.346 205.38C391.362 180.937 389.314 167.661 382.257 146.427C365.133 94.9144 326.822 53.993 276.036 32.9692C272.306 31.4249 269.053 30.1617 268.806 30.1617C268.56 30.1617 271.138 32.6148 274.536 35.6134C300.401 58.4403 319.709 92.3538 326.965 127.703C337.09 177.03 323.511 230.203 290.857 269.095C290.181 269.9 289.499 270.698 288.812 271.488L275.752 258.427C277.018 256.987 278.178 255.597 279.2 254.288C296.441 232.207 307.225 206.305 310.62 178.826C312.164 166.329 311.185 142.018 308.654 130C298.506 81.8104 265.445 40.9599 221.381 22.1638C207.287 16.1522 207.04 16.0065 205.76 12.9441Z" fill="white"/>
</g>
<defs>
<clipPath id="clip0_974_379">
<rect width="410" height="410" fill="white"/>
</clipPath>
</defs>
</svg>
